<?xml version="1.0" encoding="UTF-8" standalone="no"?>
<!DOCTYPE svg PUBLIC "-//W3C//DTD SVG 1.1//EN"
 "http://www.w3.org/Graphics/SVG/1.1/DTD/svg11.dtd">
<!-- Generated by graphviz version 2.43.0 (0)
 -->
<!-- Title: %3 Pages: 1 -->
<svg width="570pt" height="710pt"
 viewBox="0.00 0.00 570.00 710.00" xmlns="http://www.w3.org/2000/svg" xmlns:xlink="http://www.w3.org/1999/xlink">
<g id="graph0" class="graph" transform="scale(1 1) rotate(0) translate(4 706)">
<title>%3</title>
<polygon fill="white" stroke="transparent" points="-4,4 -4,-706 566,-706 566,4 -4,4"/>
<!-- 132715302980688 -->
<g id="node1" class="node">
<title>132715302980688</title>
<polygon fill="#caff70" stroke="black" points="355,-31 296,-31 296,0 355,0 355,-31"/>
<text text-anchor="middle" x="325.5" y="-7" font-family="monospace" font-size="10.00"> (1, 1)</text>
</g>
<!-- 132715302913552 -->
<g id="node2" class="node">
<title>132715302913552</title>
<polygon fill="lightgrey" stroke="black" points="382,-86 269,-86 269,-67 382,-67 382,-86"/>
<text text-anchor="middle" x="325.5" y="-74" font-family="monospace" font-size="10.00">SigmoidBackward0</text>
</g>
<!-- 132715302913552&#45;&gt;132715302980688 -->
<g id="edge27" class="edge">
<title>132715302913552&#45;&gt;132715302980688</title>
<path fill="none" stroke="black" d="M325.5,-66.79C325.5,-60.07 325.5,-50.4 325.5,-41.34"/>
<polygon fill="black" stroke="black" points="329,-41.19 325.5,-31.19 322,-41.19 329,-41.19"/>
</g>
<!-- 132715302919024 -->
<g id="node3" class="node">
<title>132715302919024</title>
<polygon fill="lightgrey" stroke="black" points="376,-141 275,-141 275,-122 376,-122 376,-141"/>
<text text-anchor="middle" x="325.5" y="-129" font-family="monospace" font-size="10.00">AddmmBackward0</text>
</g>
<!-- 132715302919024&#45;&gt;132715302913552 -->
<g id="edge1" class="edge">
<title>132715302919024&#45;&gt;132715302913552</title>
<path fill="none" stroke="black" d="M325.5,-121.75C325.5,-114.8 325.5,-104.85 325.5,-96.13"/>
<polygon fill="black" stroke="black" points="329,-96.09 325.5,-86.09 322,-96.09 329,-96.09"/>
</g>
<!-- 132715302919600 -->
<g id="node4" class="node">
<title>132715302919600</title>
<polygon fill="lightgrey" stroke="black" points="260,-196 159,-196 159,-177 260,-177 260,-196"/>
<text text-anchor="middle" x="209.5" y="-184" font-family="monospace" font-size="10.00">AccumulateGrad</text>
</g>
<!-- 132715302919600&#45;&gt;132715302919024 -->
<g id="edge2" class="edge">
<title>132715302919600&#45;&gt;132715302919024</title>
<path fill="none" stroke="black" d="M228.14,-176.98C246.8,-168.46 275.75,-155.23 297.24,-145.41"/>
<polygon fill="black" stroke="black" points="298.88,-148.51 306.52,-141.17 295.97,-142.14 298.88,-148.51"/>
</g>
<!-- 132715302979824 -->
<g id="node5" class="node">
<title>132715302979824</title>
<polygon fill="lightblue" stroke="black" points="254,-262 165,-262 165,-232 254,-232 254,-262"/>
<text text-anchor="middle" x="209.5" y="-250" font-family="monospace" font-size="10.00">model.8.bias</text>
<text text-anchor="middle" x="209.5" y="-239" font-family="monospace" font-size="10.00"> (1)</text>
</g>
<!-- 132715302979824&#45;&gt;132715302919600 -->
<g id="edge3" class="edge">
<title>132715302979824&#45;&gt;132715302919600</title>
<path fill="none" stroke="black" d="M209.5,-231.84C209.5,-224.21 209.5,-214.7 209.5,-206.45"/>
<polygon fill="black" stroke="black" points="213,-206.27 209.5,-196.27 206,-206.27 213,-206.27"/>
</g>
<!-- 132715302914272 -->
<g id="node6" class="node">
<title>132715302914272</title>
<polygon fill="lightgrey" stroke="black" points="373,-196 278,-196 278,-177 373,-177 373,-196"/>
<text text-anchor="middle" x="325.5" y="-184" font-family="monospace" font-size="10.00">ReluBackward0</text>
</g>
<!-- 132715302914272&#45;&gt;132715302919024 -->
<g id="edge4" class="edge">
<title>132715302914272&#45;&gt;132715302919024</title>
<path fill="none" stroke="black" d="M325.5,-176.75C325.5,-169.8 325.5,-159.85 325.5,-151.13"/>
<polygon fill="black" stroke="black" points="329,-151.09 325.5,-141.09 322,-151.09 329,-151.09"/>
</g>
<!-- 132715302919648 -->
<g id="node7" class="node">
<title>132715302919648</title>
<polygon fill="lightgrey" stroke="black" points="374,-256.5 273,-256.5 273,-237.5 374,-237.5 374,-256.5"/>
<text text-anchor="middle" x="323.5" y="-244.5" font-family="monospace" font-size="10.00">AddmmBackward0</text>
</g>
<!-- 132715302919648&#45;&gt;132715302914272 -->
<g id="edge5" class="edge">
<title>132715302919648&#45;&gt;132715302914272</title>
<path fill="none" stroke="black" d="M323.8,-237.37C324.07,-229.25 324.5,-216.81 324.85,-206.39"/>
<polygon fill="black" stroke="black" points="328.36,-206.28 325.2,-196.17 321.36,-206.04 328.36,-206.28"/>
</g>
<!-- 132715302919936 -->
<g id="node8" class="node">
<title>132715302919936</title>
<polygon fill="lightgrey" stroke="black" points="214,-322.5 113,-322.5 113,-303.5 214,-303.5 214,-322.5"/>
<text text-anchor="middle" x="163.5" y="-310.5" font-family="monospace" font-size="10.00">AccumulateGrad</text>
</g>
<!-- 132715302919936&#45;&gt;132715302919648 -->
<g id="edge6" class="edge">
<title>132715302919936&#45;&gt;132715302919648</title>
<path fill="none" stroke="black" d="M185.08,-303.37C212.71,-292.32 260.79,-273.08 292.38,-260.45"/>
<polygon fill="black" stroke="black" points="294.02,-263.56 302.01,-256.6 291.42,-257.06 294.02,-263.56"/>
</g>
<!-- 132715302979632 -->
<g id="node9" class="node">
<title>132715302979632</title>
<polygon fill="lightblue" stroke="black" points="187,-394 98,-394 98,-364 187,-364 187,-394"/>
<text text-anchor="middle" x="142.5" y="-382" font-family="monospace" font-size="10.00">model.6.bias</text>
<text text-anchor="middle" x="142.5" y="-371" font-family="monospace" font-size="10.00"> (128)</text>
</g>
<!-- 132715302979632&#45;&gt;132715302919936 -->
<g id="edge7" class="edge">
<title>132715302979632&#45;&gt;132715302919936</title>
<path fill="none" stroke="black" d="M147.16,-363.8C150.18,-354.6 154.14,-342.53 157.4,-332.58"/>
<polygon fill="black" stroke="black" points="160.81,-333.44 160.6,-322.84 154.15,-331.25 160.81,-333.44"/>
</g>
<!-- 132715302919888 -->
<g id="node10" class="node">
<title>132715302919888</title>
<polygon fill="lightgrey" stroke="black" points="348,-322.5 253,-322.5 253,-303.5 348,-303.5 348,-322.5"/>
<text text-anchor="middle" x="300.5" y="-310.5" font-family="monospace" font-size="10.00">ViewBackward0</text>
</g>
<!-- 132715302919888&#45;&gt;132715302919648 -->
<g id="edge8" class="edge">
<title>132715302919888&#45;&gt;132715302919648</title>
<path fill="none" stroke="black" d="M303.6,-303.37C306.98,-293.97 312.48,-278.67 316.84,-266.53"/>
<polygon fill="black" stroke="black" points="320.21,-267.5 320.3,-256.91 313.62,-265.13 320.21,-267.5"/>
</g>
<!-- 132715302919696 -->
<g id="node11" class="node">
<title>132715302919696</title>
<polygon fill="lightgrey" stroke="black" points="396,-388.5 205,-388.5 205,-369.5 396,-369.5 396,-388.5"/>
<text text-anchor="middle" x="300.5" y="-376.5" font-family="monospace" font-size="10.00">MaxPool2DWithIndicesBackward0</text>
</g>
<!-- 132715302919696&#45;&gt;132715302919888 -->
<g id="edge9" class="edge">
<title>132715302919696&#45;&gt;132715302919888</title>
<path fill="none" stroke="black" d="M300.5,-369.37C300.5,-360.16 300.5,-345.29 300.5,-333.27"/>
<polygon fill="black" stroke="black" points="304,-332.91 300.5,-322.91 297,-332.91 304,-332.91"/>
</g>
<!-- 132715302920176 -->
<g id="node12" class="node">
<title>132715302920176</title>
<polygon fill="lightgrey" stroke="black" points="369,-454.5 232,-454.5 232,-435.5 369,-435.5 369,-454.5"/>
<text text-anchor="middle" x="300.5" y="-442.5" font-family="monospace" font-size="10.00">ConvolutionBackward0</text>
</g>
<!-- 132715302920176&#45;&gt;132715302919696 -->
<g id="edge10" class="edge">
<title>132715302920176&#45;&gt;132715302919696</title>
<path fill="none" stroke="black" d="M300.5,-435.37C300.5,-426.16 300.5,-411.29 300.5,-399.27"/>
<polygon fill="black" stroke="black" points="304,-398.91 300.5,-388.91 297,-398.91 304,-398.91"/>
</g>
<!-- 132715302915376 -->
<g id="node13" class="node">
<title>132715302915376</title>
<polygon fill="lightgrey" stroke="black" points="232,-515 41,-515 41,-496 232,-496 232,-515"/>
<text text-anchor="middle" x="136.5" y="-503" font-family="monospace" font-size="10.00">MaxPool2DWithIndicesBackward0</text>
</g>
<!-- 132715302915376&#45;&gt;132715302920176 -->
<g id="edge11" class="edge">
<title>132715302915376&#45;&gt;132715302920176</title>
<path fill="none" stroke="black" d="M160.35,-495.99C188.4,-485.99 235.17,-469.3 266.9,-457.99"/>
<polygon fill="black" stroke="black" points="268.38,-461.17 276.62,-454.52 266.03,-454.58 268.38,-461.17"/>
</g>
<!-- 132715302925360 -->
<g id="node14" class="node">
<title>132715302925360</title>
<polygon fill="lightgrey" stroke="black" points="205,-575.5 68,-575.5 68,-556.5 205,-556.5 205,-575.5"/>
<text text-anchor="middle" x="136.5" y="-563.5" font-family="monospace" font-size="10.00">ConvolutionBackward0</text>
</g>
<!-- 132715302925360&#45;&gt;132715302915376 -->
<g id="edge12" class="edge">
<title>132715302925360&#45;&gt;132715302915376</title>
<path fill="none" stroke="black" d="M136.5,-556.37C136.5,-548.25 136.5,-535.81 136.5,-525.39"/>
<polygon fill="black" stroke="black" points="140,-525.17 136.5,-515.17 133,-525.17 140,-525.17"/>
</g>
<!-- 132715302923632 -->
<g id="node15" class="node">
<title>132715302923632</title>
<polygon fill="lightgrey" stroke="black" points="128,-636 27,-636 27,-617 128,-617 128,-636"/>
<text text-anchor="middle" x="77.5" y="-624" font-family="monospace" font-size="10.00">AccumulateGrad</text>
</g>
<!-- 132715302923632&#45;&gt;132715302925360 -->
<g id="edge13" class="edge">
<title>132715302923632&#45;&gt;132715302925360</title>
<path fill="none" stroke="black" d="M86.21,-616.87C95.18,-607.97 109.38,-593.89 120.41,-582.95"/>
<polygon fill="black" stroke="black" points="123.12,-585.19 127.76,-575.67 118.19,-580.22 123.12,-585.19"/>
</g>
<!-- 132715302979056 -->
<g id="node16" class="node">
<title>132715302979056</title>
<polygon fill="lightblue" stroke="black" points="131,-702 0,-702 0,-672 131,-672 131,-702"/>
<text text-anchor="middle" x="65.5" y="-690" font-family="monospace" font-size="10.00">model.1.conv.weight</text>
<text text-anchor="middle" x="65.5" y="-679" font-family="monospace" font-size="10.00"> (16, 3, 3, 3)</text>
</g>
<!-- 132715302979056&#45;&gt;132715302923632 -->
<g id="edge14" class="edge">
<title>132715302979056&#45;&gt;132715302923632</title>
<path fill="none" stroke="black" d="M68.4,-671.84C69.99,-664.13 71.96,-654.49 73.67,-646.17"/>
<polygon fill="black" stroke="black" points="77.12,-646.77 75.7,-636.27 70.26,-645.36 77.12,-646.77"/>
</g>
<!-- 132715302923776 -->
<g id="node17" class="node">
<title>132715302923776</title>
<polygon fill="lightgrey" stroke="black" points="253,-636 152,-636 152,-617 253,-617 253,-636"/>
<text text-anchor="middle" x="202.5" y="-624" font-family="monospace" font-size="10.00">AccumulateGrad</text>
</g>
<!-- 132715302923776&#45;&gt;132715302925360 -->
<g id="edge15" class="edge">
<title>132715302923776&#45;&gt;132715302925360</title>
<path fill="none" stroke="black" d="M192.76,-616.87C182.53,-607.8 166.21,-593.34 153.78,-582.32"/>
<polygon fill="black" stroke="black" points="156.08,-579.68 146.28,-575.67 151.44,-584.92 156.08,-579.68"/>
</g>
<!-- 132715302979248 -->
<g id="node18" class="node">
<title>132715302979248</title>
<polygon fill="lightblue" stroke="black" points="268,-702 149,-702 149,-672 268,-672 268,-702"/>
<text text-anchor="middle" x="208.5" y="-690" font-family="monospace" font-size="10.00">model.1.conv.bias</text>
<text text-anchor="middle" x="208.5" y="-679" font-family="monospace" font-size="10.00"> (16)</text>
</g>
<!-- 132715302979248&#45;&gt;132715302923776 -->
<g id="edge16" class="edge">
<title>132715302979248&#45;&gt;132715302923776</title>
<path fill="none" stroke="black" d="M207.05,-671.84C206.27,-664.21 205.29,-654.7 204.44,-646.45"/>
<polygon fill="black" stroke="black" points="207.9,-645.86 203.4,-636.27 200.94,-646.57 207.9,-645.86"/>
</g>
<!-- 132715302920128 -->
<g id="node19" class="node">
<title>132715302920128</title>
<polygon fill="lightgrey" stroke="black" points="351,-515 250,-515 250,-496 351,-496 351,-515"/>
<text text-anchor="middle" x="300.5" y="-503" font-family="monospace" font-size="10.00">AccumulateGrad</text>
</g>
<!-- 132715302920128&#45;&gt;132715302920176 -->
<g id="edge17" class="edge">
<title>132715302920128&#45;&gt;132715302920176</title>
<path fill="none" stroke="black" d="M300.5,-495.87C300.5,-487.75 300.5,-475.31 300.5,-464.89"/>
<polygon fill="black" stroke="black" points="304,-464.67 300.5,-454.67 297,-464.67 304,-464.67"/>
</g>
<!-- 132715302979344 -->
<g id="node20" class="node">
<title>132715302979344</title>
<polygon fill="lightblue" stroke="black" points="360,-581 229,-581 229,-551 360,-551 360,-581"/>
<text text-anchor="middle" x="294.5" y="-569" font-family="monospace" font-size="10.00">model.3.conv.weight</text>
<text text-anchor="middle" x="294.5" y="-558" font-family="monospace" font-size="10.00"> (32, 16, 3, 3)</text>
</g>
<!-- 132715302979344&#45;&gt;132715302920128 -->
<g id="edge18" class="edge">
<title>132715302979344&#45;&gt;132715302920128</title>
<path fill="none" stroke="black" d="M295.95,-550.84C296.73,-543.21 297.71,-533.7 298.56,-525.45"/>
<polygon fill="black" stroke="black" points="302.06,-525.57 299.6,-515.27 295.1,-524.86 302.06,-525.57"/>
</g>
<!-- 132715302915568 -->
<g id="node21" class="node">
<title>132715302915568</title>
<polygon fill="lightgrey" stroke="black" points="479,-515 378,-515 378,-496 479,-496 479,-515"/>
<text text-anchor="middle" x="428.5" y="-503" font-family="monospace" font-size="10.00">AccumulateGrad</text>
</g>
<!-- 132715302915568&#45;&gt;132715302920176 -->
<g id="edge19" class="edge">
<title>132715302915568&#45;&gt;132715302920176</title>
<path fill="none" stroke="black" d="M409.89,-495.99C388.46,-486.2 353.06,-470.02 328.35,-458.73"/>
<polygon fill="black" stroke="black" points="329.68,-455.49 319.13,-454.52 326.78,-461.86 329.68,-455.49"/>
</g>
<!-- 132715302979440 -->
<g id="node22" class="node">
<title>132715302979440</title>
<polygon fill="lightblue" stroke="black" points="497,-581 378,-581 378,-551 497,-551 497,-581"/>
<text text-anchor="middle" x="437.5" y="-569" font-family="monospace" font-size="10.00">model.3.conv.bias</text>
<text text-anchor="middle" x="437.5" y="-558" font-family="monospace" font-size="10.00"> (32)</text>
</g>
<!-- 132715302979440&#45;&gt;132715302915568 -->
<g id="edge20" class="edge">
<title>132715302979440&#45;&gt;132715302915568</title>
<path fill="none" stroke="black" d="M435.32,-550.84C434.13,-543.13 432.65,-533.49 431.37,-525.17"/>
<polygon fill="black" stroke="black" points="434.83,-524.62 429.85,-515.27 427.91,-525.68 434.83,-524.62"/>
</g>
<!-- 132715302919840 -->
<g id="node23" class="node">
<title>132715302919840</title>
<polygon fill="lightgrey" stroke="black" points="443,-322.5 366,-322.5 366,-303.5 443,-303.5 443,-322.5"/>
<text text-anchor="middle" x="404.5" y="-310.5" font-family="monospace" font-size="10.00">TBackward0</text>
</g>
<!-- 132715302919840&#45;&gt;132715302919648 -->
<g id="edge21" class="edge">
<title>132715302919840&#45;&gt;132715302919648</title>
<path fill="none" stroke="black" d="M393.58,-303.37C380.53,-293.06 358.49,-275.65 342.6,-263.09"/>
<polygon fill="black" stroke="black" points="344.53,-260.15 334.51,-256.7 340.19,-265.64 344.53,-260.15"/>
</g>
<!-- 132715302915424 -->
<g id="node24" class="node">
<title>132715302915424</title>
<polygon fill="lightgrey" stroke="black" points="515,-388.5 414,-388.5 414,-369.5 515,-369.5 515,-388.5"/>
<text text-anchor="middle" x="464.5" y="-376.5" font-family="monospace" font-size="10.00">AccumulateGrad</text>
</g>
<!-- 132715302915424&#45;&gt;132715302919840 -->
<g id="edge22" class="edge">
<title>132715302915424&#45;&gt;132715302919840</title>
<path fill="none" stroke="black" d="M456.41,-369.37C447.07,-359.4 431.49,-342.79 419.84,-330.36"/>
<polygon fill="black" stroke="black" points="422.24,-327.81 412.85,-322.91 417.13,-332.59 422.24,-327.81"/>
</g>
<!-- 132715302979536 -->
<g id="node25" class="node">
<title>132715302979536</title>
<polygon fill="lightblue" stroke="black" points="515,-460 414,-460 414,-430 515,-430 515,-460"/>
<text text-anchor="middle" x="464.5" y="-448" font-family="monospace" font-size="10.00">model.6.weight</text>
<text text-anchor="middle" x="464.5" y="-437" font-family="monospace" font-size="10.00"> (128, 6272)</text>
</g>
<!-- 132715302979536&#45;&gt;132715302915424 -->
<g id="edge23" class="edge">
<title>132715302979536&#45;&gt;132715302915424</title>
<path fill="none" stroke="black" d="M464.5,-429.8C464.5,-420.7 464.5,-408.79 464.5,-398.9"/>
<polygon fill="black" stroke="black" points="468,-398.84 464.5,-388.84 461,-398.84 468,-398.84"/>
</g>
<!-- 132715302919120 -->
<g id="node26" class="node">
<title>132715302919120</title>
<polygon fill="lightgrey" stroke="black" points="497,-196 420,-196 420,-177 497,-177 497,-196"/>
<text text-anchor="middle" x="458.5" y="-184" font-family="monospace" font-size="10.00">TBackward0</text>
</g>
<!-- 132715302919120&#45;&gt;132715302919024 -->
<g id="edge24" class="edge">
<title>132715302919120&#45;&gt;132715302919024</title>
<path fill="none" stroke="black" d="M437.13,-176.98C415.35,-168.3 381.34,-154.75 356.58,-144.88"/>
<polygon fill="black" stroke="black" points="357.84,-141.62 347.26,-141.17 355.25,-148.12 357.84,-141.62"/>
</g>
<!-- 132715302915520 -->
<g id="node27" class="node">
<title>132715302915520</title>
<polygon fill="lightgrey" stroke="black" points="539,-256.5 438,-256.5 438,-237.5 539,-237.5 539,-256.5"/>
<text text-anchor="middle" x="488.5" y="-244.5" font-family="monospace" font-size="10.00">AccumulateGrad</text>
</g>
<!-- 132715302915520&#45;&gt;132715302919120 -->
<g id="edge25" class="edge">
<title>132715302915520&#45;&gt;132715302919120</title>
<path fill="none" stroke="black" d="M484.07,-237.37C479.73,-228.9 472.98,-215.74 467.51,-205.07"/>
<polygon fill="black" stroke="black" points="470.62,-203.47 462.94,-196.17 464.39,-206.66 470.62,-203.47"/>
</g>
<!-- 132715302979728 -->
<g id="node28" class="node">
<title>132715302979728</title>
<polygon fill="lightblue" stroke="black" points="562,-328 461,-328 461,-298 562,-298 562,-328"/>
<text text-anchor="middle" x="511.5" y="-316" font-family="monospace" font-size="10.00">model.8.weight</text>
<text text-anchor="middle" x="511.5" y="-305" font-family="monospace" font-size="10.00"> (1, 128)</text>
</g>
<!-- 132715302979728&#45;&gt;132715302915520 -->
<g id="edge26" class="edge">
<title>132715302979728&#45;&gt;132715302915520</title>
<path fill="none" stroke="black" d="M506.4,-297.8C503.06,-288.5 498.66,-276.27 495.06,-266.26"/>
<polygon fill="black" stroke="black" points="498.35,-265.07 491.68,-256.84 491.77,-267.44 498.35,-265.07"/>
</g>
</g>
</svg>
